# Blender v2.80 (sub 75) OBJ File: ''
# www.blender.org
mtllib pollyHill.mtl
o Cube
v 0.976611 -1.702705 -3.307211
v 0.042082 -5.694188 -0.072707
v 3.553606 -2.417705 -2.332074
v 2.653313 -1.384536 1.402630
v -0.989468 -1.717099 -3.309920
v -0.041310 -5.693258 -0.069804
v -2.684948 -0.687096 -1.774228
v -2.653313 -1.384536 1.402630
vt 0.375000 0.000000
vt 0.625000 0.000000
vt 0.625000 0.250000
vt 0.375000 0.250000
vt 0.375000 0.250000
vt 0.625000 0.250000
vt 0.625000 0.500000
vt 0.375000 0.500000
vt 0.625000 0.750000
vt 0.375000 0.750000
vt 0.625000 0.750000
vt 0.625000 1.000000
vt 0.375000 1.000000
vt 0.125000 0.500000
vt 0.375000 0.500000
vt 0.375000 0.750000
vt 0.125000 0.750000
vt 0.625000 0.500000
vt 0.875000 0.500000
vt 0.875000 0.750000
vn 0.1890 0.9640 -0.1873
vn 0.1468 0.9887 -0.0296
vn -0.8176 -0.5176 -0.2521
vn 0.0005 -0.3236 0.9462
vn 0.6134 -0.7721 -0.1662
vn 0.0041 -0.6306 -0.7761
usemtl Material
s off
f 1/1/1 5/2/1 7/3/1 3/4/1
f 4/5/2 3/6/2 7/7/2 8/8/2
f 8/8/3 7/7/3 5/9/3 6/10/3
f 6/10/4 2/11/4 4/12/4 8/13/4
f 2/14/5 1/15/5 3/16/5 4/17/5
f 6/18/6 5/19/6 1/20/6 2/11/6
